<svg version="1.1" id="Layer_1" xmlns="http://www.w3.org/2000/svg" xmlns:xlink="http://www.w3.org/1999/xlink" x="0px" y="0px"
	 width="100%" viewBox="0 0 300 300" enable-background="new 0 0 300 300" xml:space="preserve">
<path fill="#FFFFFF" opacity="1.000000" stroke="none" 
	d="
M1.000000,110.000000 
	C1.000000,73.348404 1.000000,37.196804 1.000000,1.022603 
	C100.943260,1.022603 200.886536,1.022603 300.914917,1.022603 
	C300.914917,100.901535 300.914917,200.803177 300.914917,300.852417 
	C201.000168,300.852417 101.000107,300.852417 1.000000,300.852417 
	C1.000000,237.446915 1.000000,173.973465 1.000000,110.000000 
M281.998962,79.151787 
	C281.259979,77.557434 280.675507,75.867554 279.758148,74.383476 
	C270.216949,58.948009 258.604431,45.272110 244.362198,33.997082 
	C239.609573,30.234623 234.215698,27.282192 228.835052,23.297415 
	C222.720184,20.151028 216.650574,16.912708 210.481277,13.876912 
	C196.569824,7.031324 181.596786,3.350067 166.366653,2.221941 
	C142.099060,0.424395 117.979050,2.245143 95.256805,12.112678 
	C87.539902,15.463878 80.327713,19.977282 72.159904,23.999800 
	C71.148407,24.465471 70.038712,24.790504 69.140167,25.417936 
	C55.928600,34.643349 43.712677,45.036285 33.815472,57.802460 
	C25.254759,68.844734 17.567606,80.503609 12.448740,94.053909 
	C12.353073,94.361732 12.257405,94.669548 12.001555,95.624992 
	C11.960695,96.067017 11.919835,96.509041 11.207270,97.280258 
	C8.138273,110.070206 3.492161,122.729958 2.422706,135.684967 
	C1.240582,150.004822 2.552564,164.689819 4.289743,179.032715 
	C5.361652,187.882858 9.256137,196.391113 11.981654,205.708664 
	C12.041678,206.144104 12.101704,206.579544 12.073959,207.551483 
	C12.370553,207.740417 12.667147,207.929367 13.002668,208.868469 
	C14.115346,211.511551 15.066294,214.237183 16.366343,216.784637 
	C26.553354,236.746246 40.095398,254.065750 57.668659,268.037567 
	C62.400593,271.799744 67.794800,274.728943 73.164925,278.702576 
	C79.279778,281.848969 85.349411,285.087250 91.518684,288.123047 
	C105.430145,294.968658 120.403198,298.649963 135.633331,299.778046 
	C159.900909,301.575470 184.020935,299.754883 206.743179,289.887299 
	C214.460068,286.536072 221.672287,282.022705 229.840103,278.000214 
	C230.564362,277.667816 231.346344,277.423126 232.004379,276.990051 
	C245.937897,267.819885 258.360291,256.877838 268.544403,243.702744 
	C273.708923,237.021393 277.582947,229.342484 282.706207,221.832184 
	C292.586670,204.712982 298.168274,186.029572 299.746887,166.587311 
	C301.484039,145.192078 300.396088,123.673912 292.867981,103.179489 
	C289.925781,95.169724 285.687958,87.635872 281.998962,79.151787 
z"/>
<path fill="#0A050B" opacity="1.000000" stroke="none" 
	d="
M72.885002,278.040497 
	C67.794800,274.728943 62.400593,271.799744 57.668659,268.037567 
	C40.095398,254.065750 26.553354,236.746246 16.366343,216.784637 
	C15.066294,214.237183 14.115346,211.511551 12.909029,208.269852 
	C12.676695,207.373611 12.458809,207.154861 12.161729,207.014984 
	C12.101704,206.579544 12.041678,206.144104 12.249889,205.098358 
	C12.677700,203.688065 12.976268,202.888168 12.976841,202.088058 
	C13.001086,168.244095 13.010269,134.400101 12.952477,100.556221 
	C12.950423,99.353889 12.252549,98.152756 11.878974,96.951065 
	C11.919835,96.509041 11.960695,96.067017 12.275421,95.169754 
	C12.767910,94.478203 12.905229,94.201538 12.961242,93.884514 
	C17.567606,80.503609 25.254759,68.844734 33.815472,57.802460 
	C43.712677,45.036285 55.928600,34.643349 69.140167,25.417936 
	C70.038712,24.790504 71.148407,24.465471 72.998260,23.991823 
	C125.596062,23.975723 177.355515,23.967600 229.114960,23.959476 
	C234.215698,27.282192 239.609573,30.234623 244.362198,33.997082 
	C258.604431,45.272110 270.216949,58.948009 279.758148,74.383476 
	C280.675507,75.867554 281.259979,77.557434 282.007568,79.994362 
	C282.024231,127.929482 282.032318,175.022018 282.040405,222.114563 
	C277.582947,229.342484 273.708923,237.021393 268.544403,243.702744 
	C258.360291,256.877838 245.937897,267.819885 232.004379,276.990051 
	C231.346344,277.423126 230.564362,277.667816 229.001770,278.008179 
	C176.403946,278.024292 124.644478,278.032379 72.885002,278.040497 
M46.280739,95.048286 
	C45.520359,96.568443 44.122841,98.079239 44.100365,99.610229 
	C43.920094,111.890488 43.999405,124.174553 43.999401,136.457458 
	C43.999393,158.035538 43.986267,179.613617 44.019974,201.191650 
	C44.023335,203.343521 43.154182,206.236816 47.582130,206.086563 
	C47.903198,206.221573 48.224266,206.356583 48.676373,207.185074 
	C50.960983,209.940155 53.245598,212.695221 55.865181,215.984955 
	C56.621422,216.181961 57.377666,216.378952 58.974323,216.934967 
	C62.722404,216.682724 66.751602,217.228287 70.164787,216.025620 
	C79.638763,212.687363 81.888489,204.640091 81.903648,195.601257 
	C81.931297,179.121841 81.892990,162.642303 81.929504,146.162918 
	C81.933243,144.475113 82.258476,142.788025 82.564453,139.855270 
	C84.894897,141.829071 86.309753,142.874603 87.546585,144.099838 
	C95.351440,151.831558 103.082268,159.638153 110.903801,167.352844 
	C120.991493,177.302734 132.634048,178.141708 141.382660,165.073044 
	C147.014099,156.660797 153.288391,148.675476 159.358795,140.561829 
	C162.890396,135.841522 166.588379,131.245712 170.583313,126.116508 
	C176.978424,133.492493 182.741684,140.291656 188.690933,146.923996 
	C190.957764,149.451096 190.990021,151.222778 188.864044,154.105072 
	C179.301300,167.069748 170.005081,180.233810 160.771622,193.437088 
	C157.283340,198.425125 156.438507,203.870239 159.891815,209.333694 
	C163.636475,215.258087 169.038193,217.793304 176.924576,217.109222 
	C201.934235,217.135941 226.943909,217.173172 251.953552,217.162537 
	C253.416489,217.161911 254.879257,216.774231 256.929413,216.895447 
	C265.287567,216.688858 270.497375,210.279480 271.902557,202.245667 
	C272.871277,196.707230 268.620758,189.693222 262.441345,187.377060 
	C259.717102,186.355942 256.625366,185.943451 253.693390,185.911972 
	C240.069946,185.765671 226.443970,185.871292 212.819092,185.826096 
	C210.929321,185.819824 209.040665,185.475525 205.852203,185.158554 
	C211.482590,178.251877 216.343018,172.289658 221.789658,166.084229 
	C222.189148,165.388153 222.588638,164.692093 223.409012,163.541122 
	C224.303452,162.409973 225.197876,161.278824 226.703598,159.843765 
	C227.319824,158.197342 227.936050,156.550934 228.783615,154.093231 
	C228.753784,152.419342 228.723938,150.745468 228.872543,148.305695 
	C227.991760,146.080048 227.110977,143.854416 226.094330,141.116379 
	C225.739517,140.739044 225.384705,140.361710 224.964417,139.307098 
	C224.001526,138.160400 223.038651,137.013718 221.804092,135.303574 
	C220.879166,134.197189 219.954239,133.090805 218.947617,131.321442 
	C217.686386,130.122543 216.425171,128.923660 214.931000,127.102806 
	C212.577866,124.415382 210.224731,121.727966 207.867905,118.411293 
	C207.465881,117.974380 207.063858,117.537468 206.812759,116.428688 
	C206.839493,116.200714 206.866226,115.972748 207.846954,115.779930 
	C221.794662,115.737030 235.742554,115.719551 249.689850,115.619385 
	C251.453781,115.606712 253.214600,115.160179 255.770874,114.999580 
	C256.814911,114.844810 257.858917,114.690041 259.510468,114.752838 
	C260.169830,114.283211 260.829163,113.813583 262.180756,113.271820 
	C266.835632,111.811279 269.433411,108.451515 271.388611,103.569473 
	C271.090973,100.181046 270.793335,96.792618 270.451416,92.896370 
	C270.288544,92.601578 270.125671,92.306778 269.964417,91.379257 
	C269.474243,90.722176 268.984100,90.065086 268.189270,88.815247 
	C264.577362,85.088524 260.465393,82.532135 254.076630,82.937004 
	C236.661499,82.914337 219.246292,82.849777 201.831284,82.884895 
	C191.560135,82.905602 181.289307,83.084282 170.240448,83.027283 
	C164.638611,83.274002 160.475235,86.193642 157.275726,90.466690 
	C150.208344,99.905357 143.309845,109.470444 136.341446,118.983223 
	C132.654739,124.016068 128.965942,129.047394 124.958290,134.515762 
	C120.412987,130.202332 116.288147,126.403336 112.291771,122.473701 
	C100.431328,110.811356 88.810760,98.897186 76.722038,87.477776 
	C69.276672,80.444649 59.126785,81.350334 51.281750,88.988289 
	C50.928249,89.687828 50.574749,90.387375 49.788155,91.569351 
	C49.387642,92.558434 48.987129,93.547516 48.100727,94.710327 
	C47.776089,94.819939 47.451454,94.929543 46.280739,95.048286 
z"/>
<path fill="#020004" opacity="1.000000" stroke="none" 
	d="
M73.024963,278.371521 
	C124.644478,278.032379 176.403946,278.024292 228.639267,278.028259 
	C221.672287,282.022705 214.460068,286.536072 206.743179,289.887299 
	C184.020935,299.754883 159.900909,301.575470 135.633331,299.778046 
	C120.403198,298.649963 105.430145,294.968658 91.518684,288.123047 
	C85.349411,285.087250 79.279778,281.848969 73.024963,278.371521 
z"/>
<path fill="#020004" opacity="1.000000" stroke="none" 
	d="
M228.975006,23.628445 
	C177.355515,23.967600 125.596062,23.975723 73.360748,23.971725 
	C80.327713,19.977282 87.539902,15.463878 95.256805,12.112678 
	C117.979050,2.245143 142.099060,0.424395 166.366653,2.221941 
	C181.596786,3.350067 196.569824,7.031324 210.481277,13.876912 
	C216.650574,16.912708 222.720184,20.151028 228.975006,23.628445 
z"/>
<path fill="#020004" opacity="1.000000" stroke="none" 
	d="
M282.373291,221.973373 
	C282.032318,175.022018 282.024231,127.929482 282.028198,80.361099 
	C285.687958,87.635872 289.925781,95.169724 292.867981,103.179489 
	C300.396088,123.673912 301.484039,145.192078 299.746887,166.587311 
	C298.168274,186.029572 292.586670,204.712982 282.373291,221.973373 
z"/>
<path fill="#020004" opacity="1.000000" stroke="none" 
	d="
M11.543121,97.115662 
	C12.252549,98.152756 12.950423,99.353889 12.952477,100.556221 
	C13.010269,134.400101 13.001086,168.244095 12.976841,202.088058 
	C12.976268,202.888168 12.677700,203.688065 12.200769,204.770462 
	C9.256137,196.391113 5.361652,187.882858 4.289743,179.032715 
	C2.552564,164.689819 1.240582,150.004822 2.422706,135.684967 
	C3.492161,122.729958 8.138273,110.070206 11.543121,97.115662 
z"/>
<path fill="#020004" opacity="1.000000" stroke="none" 
	d="
M12.117844,207.283234 
	C12.458809,207.154861 12.676695,207.373611 12.889565,207.894775 
	C12.667147,207.929367 12.370553,207.740417 12.117844,207.283234 
z"/>
<path fill="#020004" opacity="1.000000" stroke="none" 
	d="
M12.704990,93.969208 
	C12.905229,94.201538 12.767910,94.478203 12.355513,94.845940 
	C12.257405,94.669548 12.353073,94.361732 12.704990,93.969208 
z"/>
<path fill="#E12574" opacity="1.000000" stroke="none" 
	d="
M207.871597,119.040558 
	C210.224731,121.727966 212.577866,124.415382 215.011047,127.778122 
	C216.403839,129.630432 217.716568,130.807434 219.029297,131.984436 
	C219.954239,133.090805 220.879166,134.197189 221.935455,135.944122 
	C223.054489,137.717911 224.042191,138.851135 225.029892,139.984360 
	C225.384705,140.361710 225.739517,140.739044 226.110840,141.777496 
	C226.982941,144.649597 227.838531,146.860580 228.694092,149.071579 
	C228.723938,150.745468 228.753784,152.419342 228.355408,154.604218 
	C227.315582,156.792709 226.703949,158.470184 226.092300,160.147675 
	C225.197876,161.278824 224.303452,162.409973 222.853027,163.812805 
	C221.932510,164.832138 221.567993,165.579788 221.203461,166.327454 
	C216.343018,172.289658 211.482590,178.251877 205.852203,185.158554 
	C209.040665,185.475525 210.929321,185.819824 212.819092,185.826096 
	C226.443970,185.871292 240.069946,185.765671 253.693390,185.911972 
	C256.625366,185.943451 259.717102,186.355942 262.441345,187.377060 
	C268.620758,189.693222 272.871277,196.707230 271.902557,202.245667 
	C270.497375,210.279480 265.287567,216.688858 256.357605,216.341064 
	C254.850967,215.525101 253.916504,215.036728 252.981186,215.035080 
	C228.493027,214.991852 204.004669,214.973724 179.516861,215.075851 
	C178.349823,215.080704 177.187546,216.226624 176.023056,216.841156 
	C169.038193,217.793304 163.636475,215.258087 159.891815,209.333694 
	C156.438507,203.870239 157.283340,198.425125 160.771622,193.437088 
	C170.005081,180.233810 179.301300,167.069748 188.864044,154.105072 
	C190.990021,151.222778 190.957764,149.451096 188.690933,146.923996 
	C182.741684,140.291656 176.978424,133.492493 170.583313,126.116508 
	C166.588379,131.245712 162.890396,135.841522 159.358795,140.561829 
	C153.288391,148.675476 147.014099,156.660797 141.382660,165.073044 
	C132.634048,178.141708 120.991493,177.302734 110.903801,167.352844 
	C103.082268,159.638153 95.351440,151.831558 87.546585,144.099838 
	C86.309753,142.874603 84.894897,141.829071 82.564453,139.855270 
	C82.258476,142.788025 81.933243,144.475113 81.929504,146.162918 
	C81.892990,162.642303 81.931297,179.121841 81.903648,195.601257 
	C81.888489,204.640091 79.638763,212.687363 70.164787,216.025620 
	C66.751602,217.228287 62.722404,216.682724 58.445541,216.442108 
	C57.121246,215.782928 56.325729,215.616608 55.530212,215.450287 
	C53.245598,212.695221 50.960983,209.940155 48.742355,206.520355 
	C48.373474,205.191498 47.938610,204.527374 47.359234,203.424835 
	C47.163895,168.349258 47.110695,133.712097 47.080395,99.074921 
	C47.079830,98.428383 47.351002,97.781601 47.801094,97.017586 
	C48.266743,96.112358 48.426678,95.324471 48.586617,94.536591 
	C48.987129,93.547516 49.387642,92.558434 50.316124,91.268372 
	C51.200424,90.268532 51.556751,89.569679 51.913074,88.870827 
	C59.126785,81.350334 69.276672,80.444649 76.722038,87.477776 
	C88.810760,98.897186 100.431328,110.811356 112.291771,122.473701 
	C116.288147,126.403336 120.412987,130.202332 124.958290,134.515762 
	C128.965942,129.047394 132.654739,124.016068 136.341446,118.983223 
	C143.309845,109.470444 150.208344,99.905357 157.275726,90.466690 
	C160.475235,86.193642 164.638611,83.274002 170.694031,83.486359 
	C172.498642,84.629837 173.846924,85.904839 175.201126,85.911163 
	C200.621017,86.029999 226.041855,86.036263 251.461319,85.878479 
	C252.642044,85.871155 253.811920,84.115257 254.986847,83.173737 
	C260.465393,82.532135 264.577362,85.088524 268.220276,89.470444 
	C268.821808,90.754425 269.392303,91.383202 269.962830,92.011978 
	C270.125671,92.306778 270.288544,92.601578 270.329254,93.588638 
	C270.401581,97.502716 270.596069,100.724525 270.790588,103.946342 
	C269.433411,108.451515 266.835632,111.811279 261.507477,113.210442 
	C260.190460,113.611130 259.546692,114.073204 258.902954,114.535263 
	C257.858917,114.690041 256.814911,114.844810 255.072601,114.674622 
	C239.419785,114.243179 224.465256,114.107658 209.510712,114.104271 
	C208.638245,114.104073 207.765564,115.173248 206.892975,115.744774 
	C206.866226,115.972748 206.839493,116.200714 206.549805,116.949974 
	C206.815079,117.994354 207.343338,118.517456 207.871597,119.040558 
z"/>
<path fill="#000404" opacity="1.000000" stroke="none" 
	d="
M47.495384,97.134933 
	C47.351002,97.781601 47.079830,98.428383 47.080395,99.074921 
	C47.110695,133.712097 47.163895,168.349258 47.209740,203.757782 
	C47.159233,205.012894 47.113708,205.496628 47.068192,205.980362 
	C43.154182,206.236816 44.023335,203.343521 44.019974,201.191650 
	C43.986267,179.613617 43.999393,158.035538 43.999401,136.457458 
	C43.999405,124.174553 43.920094,111.890488 44.100365,99.610229 
	C44.122841,98.079239 45.520359,96.568443 46.718552,95.403183 
	C47.269371,96.217033 47.382378,96.675980 47.495384,97.134933 
z"/>
<path fill="#EF267B" opacity="1.000000" stroke="none" 
	d="
M254.531738,83.055367 
	C253.811920,84.115257 252.642044,85.871155 251.461319,85.878479 
	C226.041855,86.036263 200.621017,86.029999 175.201126,85.911163 
	C173.846924,85.904839 172.498642,84.629837 171.082977,83.568680 
	C181.289307,83.084282 191.560135,82.905602 201.831284,82.884895 
	C219.246292,82.849777 236.661499,82.914337 254.531738,83.055367 
z"/>
<path fill="#F4287D" opacity="1.000000" stroke="none" 
	d="
M176.473816,216.975189 
	C177.187546,216.226624 178.349823,215.080704 179.516861,215.075851 
	C204.004669,214.973724 228.493027,214.991852 252.981186,215.035080 
	C253.916504,215.036728 254.850967,215.525101 256.063965,216.176666 
	C254.879257,216.774231 253.416489,217.161911 251.953552,217.162537 
	C226.943909,217.173172 201.934235,217.135941 176.473816,216.975189 
z"/>
<path fill="#B21E5D" opacity="1.000000" stroke="none" 
	d="
M207.369965,115.762352 
	C207.765564,115.173248 208.638245,114.104073 209.510712,114.104271 
	C224.465256,114.107658 239.419785,114.243179 254.675583,114.632156 
	C253.214600,115.160179 251.453781,115.606712 249.689850,115.619385 
	C235.742554,115.719551 221.794662,115.737030 207.369965,115.762352 
z"/>
<path fill="#B21E5D" opacity="1.000000" stroke="none" 
	d="
M271.089600,103.757904 
	C270.596069,100.724525 270.401581,97.502716 270.351379,93.842545 
	C270.793335,96.792618 271.090973,100.181046 271.089600,103.757904 
z"/>
<path fill="#B21E5D" opacity="1.000000" stroke="none" 
	d="
M228.783325,148.688629 
	C227.838531,146.860580 226.982941,144.649597 226.178772,142.033691 
	C227.110977,143.854416 227.991760,146.080048 228.783325,148.688629 
z"/>
<path fill="#B21E5D" opacity="1.000000" stroke="none" 
	d="
M218.988464,131.652939 
	C217.716568,130.807434 216.403839,129.630432 215.127533,128.089111 
	C216.425171,128.923660 217.686386,130.122543 218.988464,131.652939 
z"/>
<path fill="#B21E5D" opacity="1.000000" stroke="none" 
	d="
M226.397949,159.995728 
	C226.703949,158.470184 227.315582,156.792709 228.239746,155.009872 
	C227.936050,156.550934 227.319824,158.197342 226.397949,159.995728 
z"/>
<path fill="#B21E5D" opacity="1.000000" stroke="none" 
	d="
M224.997162,139.645721 
	C224.042191,138.851135 223.054489,137.717911 222.071289,136.225861 
	C223.038651,137.013718 224.001526,138.160400 224.997162,139.645721 
z"/>
<path fill="#B21E5D" opacity="1.000000" stroke="none" 
	d="
M207.869751,118.725922 
	C207.343338,118.517456 206.815079,117.994354 206.474335,117.285904 
	C207.063858,117.537468 207.465881,117.974380 207.869751,118.725922 
z"/>
<path fill="#B21E5D" opacity="1.000000" stroke="none" 
	d="
M259.206726,114.644058 
	C259.546692,114.073204 260.190460,113.611130 261.161377,113.246506 
	C260.829163,113.813583 260.169830,114.283211 259.206726,114.644058 
z"/>
<path fill="#A21C55" opacity="1.000000" stroke="none" 
	d="
M47.801094,97.017586 
	C47.382378,96.675980 47.269371,96.217033 47.141594,95.398621 
	C47.451454,94.929543 47.776089,94.819939 48.343674,94.623459 
	C48.426678,95.324471 48.266743,96.112358 47.801094,97.017586 
z"/>
<path fill="#B21E5D" opacity="1.000000" stroke="none" 
	d="
M221.496552,166.205841 
	C221.567993,165.579788 221.932510,164.832138 222.642593,164.040253 
	C222.588638,164.692093 222.189148,165.388153 221.496552,166.205841 
z"/>
<path fill="#A21C55" opacity="1.000000" stroke="none" 
	d="
M47.325157,206.033463 
	C47.113708,205.496628 47.159233,205.012894 47.354248,204.196198 
	C47.938610,204.527374 48.373474,205.191498 48.676834,206.173615 
	C48.224266,206.356583 47.903198,206.221573 47.325157,206.033463 
z"/>
<path fill="#A21C55" opacity="1.000000" stroke="none" 
	d="
M55.697701,215.717621 
	C56.325729,215.616608 57.121246,215.782928 58.025337,216.262604 
	C57.377666,216.378952 56.621422,216.181961 55.697701,215.717621 
z"/>
<path fill="#B21E5D" opacity="1.000000" stroke="none" 
	d="
M269.963623,91.695618 
	C269.392303,91.383202 268.821808,90.754425 268.372620,89.766830 
	C268.984100,90.065086 269.474243,90.722176 269.963623,91.695618 
z"/>
<path fill="#A21C55" opacity="1.000000" stroke="none" 
	d="
M51.597412,88.929558 
	C51.556751,89.569679 51.200424,90.268532 50.532673,91.027153 
	C50.574749,90.387375 50.928249,89.687828 51.597412,88.929558 
z"/>
</svg>